<?xml version="1.0" encoding="utf-8"?>
<svg xmlns="http://www.w3.org/2000/svg" viewBox="0 0 80 80" width="150" height="150">
  <path d="M39.548828 7.6855469C37.636968 7.7092009 35.761158 7.8843704 33.929688 8.1992188 A 1.0001 1.0001 0 1 0 34.267578 10.169922C35.996107 9.8727701 37.768078 9.7078929 39.574219 9.6855469L39.841797 9.6855469C49.230683 9.6855469 57.925506 13.422149 64.376953 20.224609 A 1.0002374 1.0002374 0 1 0 65.828125 18.847656C59.009572 11.658117 49.762911 7.6855469 39.841797 7.6855469L39.556641 7.6855469L39.548828 7.6855469 z M 26.1875 10.544922 A 1.0001 1.0001 0 1 0 26.1875 12.544922 A 1.0001 1.0001 0 1 0 26.1875 10.544922 z M 23.166016 12.056641L22.365234 12.457031L22.207031 13.339844L22.818359 13.994141L23.166016 14.056641L23.966797 13.654297L24.125 12.773438L23.511719 12.119141L23.166016 12.056641 z M 39.611328 12.685547C33.779973 12.757867 28.318753 14.467138 23.675781 17.367188 A 1.0001 1.0001 0 1 0 24.736328 19.0625C29.081356 16.348549 34.180074 14.753223 39.636719 14.685547L39.841797 14.685547C42.413739 14.685547 44.918693 15.01473 47.318359 15.650391 A 1.0003305 1.0003305 0 0 0 47.832031 13.716797C45.263698 13.036457 42.583855 12.685547 39.841797 12.685547L39.617188 12.685547L39.611328 12.685547 z M 20.28125 13.816406L19.480469 14.21875L19.322266 15.099609L19.933594 15.753906L20.28125 15.816406L21.082031 15.416016L21.240234 14.533203L20.628906 13.878906L20.28125 13.816406 z M 52.517578 15.480469L51.716797 15.882812L51.558594 16.763672L52.171875 17.417969L52.517578 17.480469L53.318359 17.080078L53.476562 16.197266L52.865234 15.542969L52.517578 15.480469 z M 17.589844 15.863281 A 1.0001 1.0001 0 1 0 17.589844 17.863281 A 1.0001 1.0001 0 1 0 17.589844 15.863281 z M 56.009766 17.425781L55.208984 17.826172L55.050781 18.708984L55.664062 19.363281L56.009766 19.425781L56.810547 19.023438L56.96875 18.142578L56.357422 17.488281L56.009766 17.425781 z M 39.673828 17.685547C28.025562 17.830084 18.16483 25.745579 15.035156 36.441406 A 1.0003133 1.0003133 0 1 0 16.955078 37.003906C19.840874 27.141547 28.940211 19.821627 39.693359 19.685547C43.578109 19.658627 47.296376 20.535494 50.638672 22.238281 A 1.0001 1.0001 0 1 0 51.546875 20.457031C47.917171 18.607819 43.874938 17.656471 39.679688 17.685547L39.677734 17.685547L39.673828 17.685547 z M 59.207031 19.824219L58.40625 20.224609L58.248047 21.107422L58.861328 21.761719L59.207031 21.824219L60.007812 21.421875L60.166016 20.541016L59.554688 19.886719L59.207031 19.824219 z M 62.056641 22.626953L61.255859 23.027344L61.097656 23.910156L61.708984 24.564453L62.056641 24.626953L62.857422 24.224609L63.015625 23.34375L62.404297 22.6875L62.056641 22.626953 z M 39.736328 22.685547C34.52981 22.750602 29.764933 24.722938 26.125 27.933594 A 1.0001 1.0001 0 1 0 27.447266 29.433594C30.743332 26.52625 35.042284 24.744492 39.759766 24.685547C51.014683 24.545894 59.67168 34.43262 58.933594 45.707031 A 1.0001894 1.0001894 0 1 0 60.929688 45.837891C61.739601 33.466302 52.175411 22.5312 39.736328 22.685547 z M 16.035156 24.742188 A 1.0001 1.0001 0 0 0 15.197266 25.152344C11.310377 30.333484 9 36.761206 9 43.683594L9 46.683594 A 1.0001 1.0001 0 1 0 11 46.683594L11 43.683594C11 37.205982 13.159716 31.204375 16.798828 26.353516 A 1.0001 1.0001 0 0 0 16.035156 24.742188 z M 57.863281 25.40625 A 1.0001 1.0001 0 0 0 57.121094 27.103516C61.897292 32.139133 64.379677 39.044031 63.921875 46.033203L63.921875 46.035156C63.882025 46.650432 63.826215 47.26716 63.755859 47.886719 A 1.0001 1.0001 0 1 0 65.742188 48.113281C65.815827 47.46484 65.875821 46.814788 65.917969 46.164062C66.412167 38.619236 63.738068 31.174899 58.572266 25.728516 A 1.0001 1.0001 0 0 0 57.863281 25.40625 z M 64.525391 25.769531L63.722656 26.169922L63.566406 27.052734L64.177734 27.707031L64.525391 27.769531L65.326172 27.367188L65.484375 26.486328L64.871094 25.832031L64.525391 25.769531 z M 40 27.683594C31.17552 27.683594 24 34.859114 24 43.683594 A 1.0001 1.0001 0 1 0 26 43.683594C26 35.940073 32.25648 29.683594 40 29.683594C45.877801 29.683594 50.896209 33.297223 52.976562 38.416016 A 1.0001 1.0001 0 1 0 54.828125 37.662109C52.44848 31.806902 46.698199 27.683594 40 27.683594 z M 67.287109 30.773438 A 1.0001 1.0001 0 0 0 66.408203 32.189453C68.347084 36.594768 69.233427 41.460242 68.912109 46.359375C68.784121 48.311445 68.520115 50.272534 68.121094 52.224609 A 1.0001 1.0001 0 1 0 70.080078 52.625C70.497057 50.585075 70.772239 48.534164 70.90625 46.490234C71.248932 41.265367 70.3054 36.079498 68.238281 31.382812 A 1.0001 1.0001 0 0 0 67.287109 30.773438 z M 22.701172 32.669922 A 1.0001 1.0001 0 0 0 21.818359 33.181641C20.027234 36.272539 19 39.863522 19 43.683594L19 46.683594 A 1.0001 1.0001 0 1 0 21 46.683594L21 43.683594C21 40.221665 21.927953 36.980696 23.548828 34.183594 A 1.0001 1.0001 0 0 0 22.701172 32.669922 z M 40 32.683594 A 1.0001 1.0001 0 1 0 40 34.683594C44.981375 34.683594 49 38.702219 49 43.683594C49 46.043791 48.43691 49.573455 46.861328 53.294922 A 1.0001 1.0001 0 1 0 48.703125 54.074219C50.387543 50.095685 51 46.355397 51 43.683594C51 37.620968 46.062625 32.683594 40 32.683594 z M 35 34.021484 A 1.0001 1.0001 0 1 0 35 36.021484 A 1.0001 1.0001 0 1 0 35 34.021484 z M 32.123047 36.533203L31.322266 36.935547L31.164062 37.818359L31.777344 38.472656L32.123047 38.533203L32.925781 38.132812L33.082031 37.25L32.470703 36.595703L32.123047 36.533203 z M 40 37.654297C36.705135 37.654297 34 40.326477 34 43.628906 A 1.0001 1.0001 0 1 0 36 43.628906C36 41.407336 37.772865 39.654297 40 39.654297C42.214812 39.654297 44 41.462978 44 43.683594C44 43.560646 43.9935 44.311838 43.847656 45.365234C43.701834 46.41863 43.417189 47.889301 42.867188 49.566406C41.767181 52.920617 39.615796 57.084215 35.376953 60.464844 A 1.0001 1.0001 0 1 0 36.623047 62.027344C41.230204 58.352972 43.579083 53.813492 44.767578 50.189453C45.361825 48.377434 45.668635 46.790807 45.828125 45.638672C45.987615 44.486537 46 43.885541 46 43.683594C46 40.38221 43.309188 37.654297 40 37.654297 z M 30.398438 39.935547L29.595703 40.337891L29.439453 41.21875L30.050781 41.873047L30.398438 41.935547L31.199219 41.533203L31.357422 40.652344L30.744141 39.998047L30.398438 39.935547 z M 14.984375 42.669922 A 1.0001 1.0001 0 0 0 14 43.683594L14 46.683594 A 1.0001 1.0001 0 1 0 16 46.683594L16 43.683594 A 1.0001 1.0001 0 0 0 14.984375 42.669922 z M 39.984375 42.669922 A 1.0001 1.0001 0 0 0 39 43.683594C39 43.683594 39.000281 47.801434 36.251953 52.125C33.503625 56.448566 28.075262 60.977368 16.708984 61.611328 A 1.0001 1.0001 0 1 0 16.820312 63.607422C28.690036 62.945382 34.878781 58.012199 37.939453 53.197266C41.000125 48.382332 41 43.683594 41 43.683594 A 1.0001 1.0001 0 0 0 39.984375 42.669922 z M 54.984375 42.669922 A 1.0001 1.0001 0 0 0 54 43.683594C54 47.856512 52.929319 52.727553 50.53125 57.408203C49.622916 59.181113 50.15489 61.40858 51.855469 62.501953C52.062093 62.634929 52.267908 62.763878 52.470703 62.890625 A 1.0001 1.0001 0 1 0 53.529297 61.195312C53.332092 61.07206 53.134876 60.947336 52.9375 60.820312C52.111057 60.289401 51.849101 59.220975 52.310547 58.320312C54.854478 53.354962 56 48.196676 56 43.683594 A 1.0001 1.0001 0 0 0 54.984375 42.669922 z M 29.871094 43.728516L29.070312 44.128906L28.912109 45.011719L29.523438 45.666016L29.871094 45.728516L30.671875 45.326172L30.830078 44.443359L30.216797 43.789062L29.871094 43.728516 z M 34.070312 46.671875 A 1.0001 1.0001 0 0 0 33.169922 47.3125C31.697908 50.98837 27.782193 56.113457 15.955078 56.640625 A 1.0001 1.0001 0 1 0 16.044922 58.638672C28.447811 58.08584 33.317357 52.326771 35.027344 48.056641 A 1.0001 1.0001 0 0 0 34.070312 46.671875 z M 28.208984 47.138672L27.408203 47.539062L27.25 48.421875L27.861328 49.076172L28.208984 49.138672L29.009766 48.736328L29.167969 47.855469L28.556641 47.201172L28.208984 47.138672 z M 25.201172 49.484375L24.400391 49.886719L24.242188 50.767578L24.853516 51.421875L25.201172 51.484375L26.001953 51.083984L26.160156 50.201172L25.548828 49.546875L25.201172 49.484375 z M 21.621094 50.84375L20.818359 51.246094L20.662109 52.128906L21.273438 52.783203L21.621094 52.84375L22.421875 52.443359L22.580078 51.560547L21.966797 50.90625L21.621094 50.84375 z M 58.779297 51.410156 A 1.0001 1.0001 0 0 0 57.865234 52.169922C57.630825 53.060873 57.360496 53.947714 57.054688 54.830078 A 1.0006402 1.0006402 0 1 0 58.945312 55.486328C59.267505 54.556692 59.553191 53.618784 59.800781 52.677734 A 1.0001 1.0001 0 0 0 58.878906 51.410156 A 1.0001 1.0001 0 0 0 58.779297 51.410156 z M 17.839844 51.501953L17.037109 51.902344L16.880859 52.785156L17.492188 53.439453L17.839844 53.501953L18.640625 53.099609L18.798828 52.216797L18.185547 51.5625L17.839844 51.501953 z M 14 51.683594 A 1.0001 1.0001 0 1 0 14 53.683594 A 1.0001 1.0001 0 1 0 14 51.683594 z M 64 52.035156C63.65625 52.035156 63.313266 52.1905 63.134766 52.5L48.134766 78.5C47.955766 78.809 47.956766 79.19 48.134766 79.5C48.312766 79.81 48.643 80 49 80L79 80C79.357 80 79.687234 79.81 79.865234 79.5C80.043234 79.191 80.044234 78.81 79.865234 78.5L64.865234 52.5C64.686734 52.1905 64.34375 52.035156 64 52.035156 z M 64 55.001953L77.269531 78L50.730469 78L64 55.001953 z M 46 55.683594 A 1 1 0 0 0 45 56.683594 A 1 1 0 0 0 46 57.683594 A 1 1 0 0 0 47 56.683594 A 1 1 0 0 0 46 55.683594 z M 44 58.683594 A 1 1 0 0 0 43 59.683594 A 1 1 0 0 0 44 60.683594 A 1 1 0 0 0 45 59.683594 A 1 1 0 0 0 44 58.683594 z M 62.513672 62L62.753906 71L65.236328 71L65.488281 62L62.513672 62 z M 44.007812 62.310547C42.346992 62.301847 40.684062 62.851845 39.322266 63.962891C35.754664 66.873938 30.992574 69.298477 24.791016 70.617188 A 1.0001 1.0001 0 1 0 25.207031 72.572266C31.693473 71.192977 36.765493 68.630671 40.587891 65.511719C42.578298 63.88781 45.424299 63.906736 47.404297 65.546875C48.044139 66.076114 48.718022 66.589149 49.427734 67.083984 A 1.0002005 1.0002005 0 1 0 50.572266 65.443359C49.907978 64.980195 49.277845 64.50062 48.679688 64.005859C47.327686 62.885927 45.668633 62.319258 44.007812 62.310547 z M 30 63.800781 A 1.0001 1.0001 0 1 0 30 65.800781 A 1.0001 1.0001 0 1 0 30 63.800781 z M 26.757812 64.978516L25.957031 65.378906L25.798828 66.261719L26.410156 66.916016L26.757812 66.978516L27.558594 66.576172L27.716797 65.695312L27.105469 65.041016L26.757812 64.978516 z M 23.40625 65.794922L22.605469 66.195312L22.447266 67.078125L23.058594 67.732422L23.40625 67.794922L24.207031 67.392578L24.365234 66.511719L23.753906 65.857422L23.40625 65.794922 z M 20 66.351562 A 1.0001 1.0001 0 1 0 20 68.351562 A 1.0001 1.0001 0 1 0 20 66.351562 z M 43.990234 67.3125C43.456381 67.3082 42.920747 67.480407 42.484375 67.835938 A 1.0001 1.0001 0 0 0 42.484375 67.837891C40.636749 69.345701 38.611982 70.66628 36.419922 71.798828 A 1.0002023 1.0002023 0 1 0 37.337891 73.576172C39.647831 72.38272 41.789673 70.984908 43.748047 69.386719C43.879303 69.279779 44.068311 69.277388 44.214844 69.398438L44.214844 69.396484C45.271412 70.271986 46.377475 71.087181 47.533203 71.839844 A 1.0003193 1.0003193 0 1 0 48.623047 70.162109C47.530775 69.450772 46.487666 68.683921 45.490234 67.857422 A 1.0001 1.0001 0 0 0 45.488281 67.855469C45.055595 67.498038 44.524088 67.316839 43.990234 67.3125 z M 64 72.853516C62.918 72.853516 62.242188 73.481859 62.242188 74.505859C62.242188 75.520859 62.918 76.146484 64 76.146484C65.092 76.146484 65.757812 75.519859 65.757812 74.505859C65.757812 73.481859 65.092 72.853516 64 72.853516 z" fill="#FF0009" />
</svg>