<?xml version="1.0" encoding="utf-8"?>
<svg xmlns="http://www.w3.org/2000/svg" viewBox="0 0 80 80" width="50" height="50">
  <path d="M13 9C10.802666 9 9 10.802666 9 13L9 21L11 21L11 13C11 11.883334 11.883334 11 13 11L21 11L21 9L13 9 z M 59 9L59 11L67 11C68.116666 11 69 11.883334 69 13L69 21L71 21L71 13C71 10.802666 69.197334 9 67 9L59 9 z M 39.673828 14C28.025562 14.144537 18.16483 22.060033 15.035156 32.755859 A 1.0003133 1.0003133 0 1 0 16.955078 33.318359C19.840874 23.456 28.940211 16.13608 39.693359 16C43.578109 15.97308 47.296376 16.849947 50.638672 18.552734 A 1.0001 1.0001 0 1 0 51.546875 16.771484C47.917171 14.922272 43.874938 13.970924 39.679688 14L39.677734 14L39.673828 14 z M 39.736328 19C34.52981 19.065055 29.764933 21.037391 26.125 24.248047 A 1.0001 1.0001 0 1 0 27.447266 25.748047C30.743332 22.840703 35.042284 21.058945 39.759766 21C51.015693 20.859396 59.671684 30.747017 58.933594 42.021484 A 1.000126 1.000126 0 0 0 60.929688 42.150391C61.739598 29.778858 52.176401 18.844604 39.736328 19 z M 57.863281 21.720703 A 1.0001 1.0001 0 0 0 57.121094 23.417969C61.897292 28.453586 64.379677 35.358484 63.921875 42.347656C63.909115 42.540053 63.896339 42.728429 63.880859 42.917969 A 1.0001 1.0001 0 1 0 65.873047 43.082031C65.889577 42.879571 65.904729 42.678119 65.917969 42.478516C66.412167 34.933688 63.738068 27.487399 58.572266 22.041016 A 1.0001 1.0001 0 0 0 57.863281 21.720703 z M 40 23.998047C31.17552 23.998047 24 31.173567 24 39.998047 A 1.0001 1.0001 0 1 0 26 39.998047C26 32.254527 32.25648 25.998047 40 25.998047C45.877801 25.998047 50.896209 29.611677 52.976562 34.730469 A 1.0001 1.0001 0 1 0 54.828125 33.976562C52.44848 28.121355 46.698199 23.998047 40 23.998047 z M 22.701172 28.984375 A 1.0001 1.0001 0 0 0 21.818359 29.496094C20.027234 32.586992 19 36.177975 19 39.998047L19 42.998047 A 1.0001 1.0001 0 1 0 21 42.998047L21 39.998047C21 36.536119 21.927953 33.295149 23.548828 30.498047 A 1.0001 1.0001 0 0 0 22.701172 28.984375 z M 40 28.998047 A 1.0001 1.0001 0 1 0 40 30.998047C44.981375 30.998047 49 35.016672 49 39.998047C49 42.358244 48.43691 45.885955 46.861328 49.607422 A 1.0003209 1.0003209 0 0 0 48.703125 50.388672C50.387543 46.410139 51 42.66985 51 39.998047C51 33.935421 46.062625 28.998047 40 28.998047 z M 35 30.335938 A 1.0001 1.0001 0 1 0 35 32.335938 A 1.0001 1.0001 0 1 0 35 30.335938 z M 31.876953 33.169922L31.076172 33.572266L30.917969 34.453125L31.53125 35.107422L31.876953 35.169922L32.679688 34.769531L32.835938 33.886719L32.224609 33.232422L31.876953 33.169922 z M 40 33.96875C36.705135 33.96875 34 36.638977 34 39.941406 A 1.0001 1.0001 0 1 0 36 39.941406C36 37.719836 37.772865 35.96875 40 35.96875C42.214812 35.96875 44 37.775478 44 39.996094C44 39.873146 43.9935 40.624338 43.847656 41.677734C43.701834 42.73113 43.417189 44.203754 42.867188 45.880859C41.767181 49.23507 39.615796 53.396715 35.376953 56.777344 A 1.0001 1.0001 0 1 0 36.623047 58.341797C41.230204 54.667425 43.579083 50.127945 44.767578 46.503906C45.361825 44.691887 45.668635 43.10526 45.828125 41.953125C45.987615 40.80099 46 40.198041 46 39.996094C46 36.69471 43.309188 33.96875 40 33.96875 z M 30.201172 37.035156L29.400391 37.4375L29.242188 38.318359L29.853516 38.972656L30.201172 39.035156L31.001953 38.634766L31.160156 37.751953L30.546875 37.097656L30.201172 37.035156 z M 14.984375 38.984375 A 1.0001 1.0001 0 0 0 14 39.998047L14 42.998047 A 1.0001 1.0001 0 1 0 16 42.998047L16 39.998047 A 1.0001 1.0001 0 0 0 14.984375 38.984375 z M 39.984375 38.984375 A 1.0001 1.0001 0 0 0 39 39.998047C39 39.998047 39.000917 43.963804 36.398438 48.203125C33.795958 52.442446 28.661152 56.940671 17.916016 57.839844 A 1.0006008 1.0006008 0 1 0 18.083984 59.833984C29.338848 58.892157 35.204042 53.969929 38.101562 49.25C40.999083 44.530071 41 39.998047 41 39.998047 A 1.0001 1.0001 0 0 0 39.984375 38.984375 z M 54.984375 38.984375 A 1.0001 1.0001 0 0 0 54 39.998047C54 44.170965 52.928382 49.041941 50.53125 53.722656C49.622696 55.495995 50.155865 57.723318 51.857422 58.816406C53.81571 60.076106 55.707101 61.119055 57.609375 61.966797 A 1.0006716 1.0006716 0 0 0 58.423828 60.138672C56.628103 59.338413 54.827165 58.349066 52.939453 57.134766 A 1.0001 1.0001 0 0 0 52.939453 57.132812C52.11301 56.601948 51.851054 55.535427 52.3125 54.634766C54.855368 49.669481 56 44.511129 56 39.998047 A 1.0001 1.0001 0 0 0 54.984375 38.984375 z M 29.548828 41.212891L28.748047 41.613281L28.589844 42.496094L29.203125 43.150391L29.548828 43.212891L30.349609 42.810547L30.507812 41.929688L29.896484 41.275391L29.548828 41.212891 z M 34.070312 42.986328 A 1.0001 1.0001 0 0 0 33.169922 43.626953C31.697908 47.302823 27.782193 52.42791 15.955078 52.955078 A 1.0001 1.0001 0 1 0 16.044922 54.953125C28.447811 54.400293 33.317357 48.639271 35.027344 44.369141 A 1.0001 1.0001 0 0 0 34.070312 42.986328 z M 27.052734 44.585938L26.251953 44.986328L26.09375 45.869141L26.705078 46.523438L27.052734 46.585938L27.853516 46.183594L28.011719 45.302734L27.398438 44.648438L27.052734 44.585938 z M 23.347656 46.615234L22.546875 47.017578L22.388672 47.900391L23.001953 48.554688L23.347656 48.615234L24.148438 48.214844L24.306641 47.332031L23.695312 46.677734L23.347656 46.615234 z M 64.226562 46.986328 A 1.0001 1.0001 0 0 0 63.292969 47.841797C62.979508 49.806395 62.109375 51.546875 62.109375 51.546875 A 1.0001 1.0001 0 1 0 63.890625 52.453125C63.890625 52.453125 64.893039 50.505605 65.267578 48.158203 A 1.0001 1.0001 0 0 0 64.326172 46.986328 A 1.0001 1.0001 0 0 0 64.226562 46.986328 z M 19.234375 47.640625L18.433594 48.042969L18.275391 48.923828L18.888672 49.578125L19.234375 49.640625L20.035156 49.240234L20.193359 48.357422L19.582031 47.703125L19.234375 47.640625 z M 15 47.986328 A 1.0001 1.0001 0 1 0 15 49.986328 A 1.0001 1.0001 0 1 0 15 47.986328 z M 58.65625 48.226562 A 1.0001 1.0001 0 0 0 57.734375 48.972656C57.330607 50.424276 56.830807 51.865247 56.240234 53.285156C55.799204 54.345359 56.196004 55.624938 57.236328 56.193359C58.558306 56.914999 59.867284 57.525591 61.201172 58.029297 A 1.0001107 1.0001107 0 1 0 61.908203 56.158203C60.668628 55.690112 59.444771 55.119467 58.195312 54.4375C58.071632 54.36992 58.016968 54.220483 58.085938 54.054688C58.707364 52.560595 59.233924 51.040193 59.660156 49.507812 A 1.0001 1.0001 0 0 0 58.65625 48.226562 z M 46 51.998047 A 1 1 0 0 0 45 52.998047 A 1 1 0 0 0 46 53.998047 A 1 1 0 0 0 47 52.998047 A 1 1 0 0 0 46 51.998047 z M 44 54.998047 A 1 1 0 0 0 43 55.998047 A 1 1 0 0 0 44 56.998047 A 1 1 0 0 0 45 55.998047 A 1 1 0 0 0 44 54.998047 z M 44.007812 58.625C42.346992 58.6163 40.684062 59.164345 39.322266 60.275391C39.274886 60.310381 35.858424 62.831371 33.685547 63.550781 A 1.0001 1.0001 0 1 0 34.3125 65.449219C37.16854 64.503623 40.560547 61.847656 40.560547 61.847656L40.574219 61.835938L40.587891 61.826172C42.578298 60.202263 45.424299 60.219243 47.404297 61.859375 A 1.0001 1.0001 0 1 0 48.679688 60.320312C47.32769 59.200419 45.668633 58.633711 44.007812 58.625 z M 9 59L9 67C9 69.197334 10.802666 71 13 71L21 71L21 69L13 69C11.883334 69 11 68.116666 11 67L11 59L9 59 z M 69 59L69 67C69 68.116666 68.116666 69 67 69L59 69L59 71L67 71C69.197334 71 71 69.197334 71 67L71 59L69 59 z M 30 60.115234 A 1.0001 1.0001 0 1 0 30 62.115234 A 1.0001 1.0001 0 1 0 30 60.115234 z M 25.582031 61.625L24.78125 62.027344L24.623047 62.908203L25.234375 63.5625L25.582031 63.625L26.382812 63.222656L26.541016 62.341797L25.929688 61.6875L25.582031 61.625 z M 21 62.537109 A 1.0001 1.0001 0 1 0 21 64.537109 A 1.0001 1.0001 0 1 0 21 62.537109 z" fill="#FF9200" />
</svg>